<?xml version="1.0" standalone="no"?>
<!DOCTYPE svg PUBLIC "-//W3C//DTD SVG 20010904//EN"
 "http://www.w3.org/TR/2001/REC-SVG-20010904/DTD/svg10.dtd">
<svg version="1.0" xmlns="http://www.w3.org/2000/svg"
 width="300.000000pt" height="270.000000pt" viewBox="0 0 300.000000 270.000000"
 preserveAspectRatio="xMidYMid meet">
<metadata>
Created by potrace 1.10, written by Peter Selinger 2001-2011
</metadata>
<g transform="translate(0.000000,270.000000) scale(0.100000,-0.100000)"
fill="#00000" stroke="none">
<path d="M1434 2628 c-502 -33 -955 -391 -1107 -874 -82 -258 -80 -534 4 -790
62 -189 156 -341 304 -490 246 -248 549 -375 895 -375 343 0 636 116 880 348
192 183 316 404 371 663 28 135 31 353 6 482 -54 272 -182 507 -380 694 -265
251 -596 367 -973 342z m312 -53 c136 -24 135 -23 67 -57 -153 -76 -276 -205
-314 -329 -26 -86 -23 -190 8 -259 20 -45 20 -46 1 -100 -38 -109 -10 -215 71
-274 38 -27 52 -31 119 -34 65 -2 83 1 117 20 59 35 85 79 85 147 0 55 1 56
41 79 143 82 292 63 397 -52 118 -128 147 -335 90 -634 l-21 -112 -31 5 c-17
3 -107 12 -201 20 -93 9 -279 28 -412 43 l-243 28 0 -76 c-1 -41 -7 -91 -14
-111 l-13 -37 176 -5 c132 -3 188 -9 224 -22 75 -27 78 -37 61 -190 -7 -71
-14 -148 -14 -170 l0 -40 -139 -49 c-134 -46 -142 -51 -193 -105 -30 -31 -64
-71 -77 -88 -20 -29 -28 -33 -70 -33 -109 0 -407 74 -416 104 -2 6 -5 78 -7
159 l-3 148 35 10 c19 6 100 20 180 32 l144 22 2 32 c1 18 5 53 9 79 l7 46
-29 -6 c-177 -36 -360 -59 -513 -65 -108 -4 -183 -11 -197 -19 -30 -17 -33
-16 -33 13 0 13 -24 109 -54 212 -70 242 -79 289 -79 398 0 244 129 417 313
418 161 1 298 -134 317 -314 l6 -64 -49 51 c-161 166 -433 73 -460 -157 -5
-45 -3 -57 11 -69 26 -22 49 0 57 54 9 66 38 116 86 150 72 51 175 46 244 -12
33 -28 67 -93 68 -129 0 -12 9 -27 21 -33 18 -10 26 -6 62 32 50 52 110 163
128 238 53 219 -41 456 -228 573 -140 88 -361 108 -502 46 -24 -11 -46 -17
-48 -15 -7 7 110 138 182 204 161 147 383 257 601 296 107 19 320 20 430 1z
m344 -114 l75 -39 -51 -15 c-114 -34 -242 -104 -342 -186 -36 -30 -42 -41 -40
-66 2 -24 8 -31 30 -33 21 -2 43 10 94 52 38 31 73 56 78 57 6 0 -2 6 -18 13
l-29 13 44 27 c24 14 86 42 137 62 50 20 92 40 92 45 0 5 9 9 20 9 33 0 23
-16 -22 -36 -24 -10 -80 -55 -125 -101 -60 -59 -83 -76 -83 -62 0 56 -59 -23
-95 -127 -33 -96 -47 -191 -43 -312 2 -103 2 -105 -25 -128 -22 -19 -40 -24
-84 -24 -50 0 -58 3 -90 35 -34 34 -35 38 -31 96 3 47 15 82 56 162 29 57 52
108 52 115 0 6 -11 19 -25 28 -24 16 -27 15 -45 -1 -11 -10 -22 -26 -25 -36
-13 -40 -25 -16 -25 51 0 134 66 239 210 335 79 52 186 104 215 104 11 0 54
-17 95 -38z m295 -212 c251 -243 376 -536 376 -884 0 -201 -34 -353 -119 -536
-32 -67 -41 -80 -47 -64 -23 65 -41 97 -75 130 -37 37 -38 37 -25 79 29 96 48
244 47 371 -1 209 -44 336 -149 443 -121 122 -296 154 -445 82 -23 -11 -44
-20 -46 -20 -10 0 10 106 34 180 45 143 151 265 269 309 62 24 63 23 180 -90z
m-1515 -199 c254 -40 429 -290 377 -540 -8 -41 -21 -88 -28 -105 -12 -29 -13
-28 -19 37 -13 130 -104 258 -227 319 -41 21 -63 24 -153 24 -98 0 -109 -2
-159 -30 -138 -76 -222 -249 -223 -454 0 -108 17 -199 67 -364 54 -179 95
-357 82 -357 -2 0 -30 38 -61 84 -107 159 -180 345 -207 526 -18 127 -7 352
24 471 30 116 81 240 114 279 46 56 208 117 313 119 19 1 64 -4 100 -9z m730
-75 l31 7 -28 -56 c-15 -31 -30 -56 -33 -56 -5 0 -40 107 -40 125 0 4 9 0 19
-9 14 -13 28 -16 51 -11z m319 -163 c6 -3 -51 -62 -61 -62 -10 0 -11 94 -1
103 3 4 18 -3 32 -15 14 -13 28 -24 30 -26z m-699 -461 c0 -14 -60 -91 -70
-91 -6 0 -15 11 -21 24 -10 21 -7 28 22 59 26 28 37 33 51 26 10 -5 18 -13 18
-18z m595 -362 c171 -19 299 -32 445 -44 36 -3 81 -8 100 -11 27 -4 43 0 63
16 l27 21 0 -24 c0 -14 16 -44 36 -68 19 -23 42 -56 51 -73 8 -17 22 -39 30
-48 19 -21 11 -57 -20 -93 -19 -23 -25 -25 -50 -16 -36 14 -83 14 -107 1 -26
-14 -43 -84 -36 -147 l6 -51 -48 -39 c-159 -132 -355 -221 -568 -258 -96 -17
-174 -20 -174 -7 0 17 74 103 105 122 17 11 78 36 136 56 57 19 113 42 125 49
31 20 41 56 53 186 20 212 14 242 -58 278 -57 29 -87 34 -236 40 l-140 6 4 60
c2 33 5 63 7 67 3 4 19 5 37 2 17 -2 113 -14 212 -25z m-455 -296 c0 -36 -18
-44 -145 -63 -147 -23 -194 -42 -213 -85 l-14 -31 -38 39 -39 38 -105 -3 c-85
-3 -109 -8 -126 -23 -11 -10 -20 -24 -20 -32 0 -18 -14 -16 -33 5 -13 14 -16
29 -11 63 6 44 7 45 43 46 141 2 442 27 521 42 128 26 180 27 180 4z m1111
-73 c48 0 46 -6 -37 -95 -52 -56 -55 -58 -50 -30 3 17 8 54 12 83 5 41 9 52
21 48 8 -3 32 -6 54 -6z m-1751 -69 c0 -6 41 -7 99 -4 95 5 99 4 115 -18 37
-53 9 -92 -85 -123 -41 -14 -61 -16 -75 -8 -16 9 -13 11 19 17 35 7 37 9 37
44 0 60 -15 72 -79 60 -60 -12 -66 -9 -56 20 6 21 25 29 25 12z m70 -84 c0 -8
-11 -20 -25 -27 -22 -12 -27 -11 -45 5 -16 14 -17 20 -8 27 21 13 78 9 78 -5z
m210 -109 c0 -64 -3 -88 -13 -88 -18 0 -140 73 -141 85 -1 5 18 16 41 25 47
17 80 44 89 73 12 39 24 -6 24 -95z"/>
<path d="M1464 2562 c-6 -4 -9 -26 -6 -50 4 -38 6 -42 26 -36 11 3 25 10 29
14 14 12 -3 52 -18 46 -8 -3 -15 3 -17 14 -2 11 -7 16 -14 12z"/>
<path d="M1622 2549 c-25 -66 -25 -71 -3 -64 12 4 21 2 21 -4 0 -6 5 -11 11
-11 6 0 9 9 6 20 -3 10 0 21 7 23 6 2 7 8 3 13 -5 5 -15 1 -23 -10 -17 -23
-19 -13 -3 16 8 14 8 23 0 31 -7 7 -13 3 -19 -14z"/>
<path d="M1300 2525 c-10 -13 -10 -19 4 -33 20 -23 21 -46 2 -61 -20 -17 -67
-10 -80 12 -9 15 -6 23 18 43 15 14 26 27 23 30 -9 10 -67 -48 -67 -68 0 -63
61 -79 111 -29 21 21 29 39 29 64 0 42 -21 65 -40 42z"/>
<path d="M1537 2533 c-13 -12 -8 -55 6 -50 6 2 11 15 9 28 -2 21 -1 21 12 -6
11 -25 15 -27 21 -12 4 9 5 24 1 32 -5 15 -37 21 -49 8z"/>
<path d="M1393 2519 c-28 -8 -33 -14 -33 -39 0 -22 4 -28 15 -24 10 4 14 14
10 28 -5 19 -4 18 8 -3 15 -26 31 -14 20 15 -4 12 -3 15 5 10 7 -4 12 -17 12
-29 0 -15 3 -18 11 -10 12 12 4 64 -9 62 -4 0 -22 -5 -39 -10z"/>
<path d="M1035 2440 c-3 -6 1 -13 10 -16 22 -9 0 -34 -31 -34 -19 0 -24 -5
-24 -24 0 -14 5 -28 11 -31 17 -11 23 3 9 20 -7 8 -9 15 -5 15 9 0 34 -31 35
-42 0 -5 -7 -8 -15 -8 -8 0 -15 -4 -15 -10 0 -16 37 -12 44 5 3 8 0 26 -6 40
-14 31 -3 45 16 19 24 -32 29 -8 6 35 -22 44 -25 47 -35 31z"/>
<path d="M1102 2431 c-15 -9 -6 -61 10 -61 6 0 7 11 4 25 -8 31 2 33 13 3 8
-20 10 -21 16 -5 15 35 -11 59 -43 38z"/>
<path d="M936 2357 c-16 -11 -17 -17 -6 -36 18 -35 6 -35 -34 -1 -35 31 -37
32 -61 16 -14 -9 -25 -21 -25 -27 0 -8 4 -8 14 0 12 10 15 8 18 -11 2 -15 -6
-32 -24 -50 -33 -31 -39 -78 -9 -78 24 0 39 19 48 61 3 19 13 40 22 47 15 12
14 13 -1 9 -10 -4 -18 1 -21 14 -7 28 8 23 37 -12 l26 -31 20 24 c11 13 17 31
14 43 -5 20 -5 20 10 1 13 -17 16 -17 16 -4 0 22 -10 48 -19 48 -4 0 -15 -6
-25 -13z m-93 -135 c-3 -12 -12 -22 -19 -22 -18 0 -18 9 3 32 20 22 24 19 16
-10z"/>
<path d="M2160 1399 c-32 -13 -78 -57 -96 -91 -8 -15 -14 -50 -14 -79 0 -143
149 -228 272 -156 111 65 119 218 15 301 -30 24 -49 30 -95 33 -31 1 -68 -2
-82 -8z m130 -47 c132 -66 89 -262 -59 -262 -89 0 -147 64 -139 152 10 100
109 155 198 110z"/>
<path d="M1311 1044 c-27 -34 -26 -47 2 -78 18 -21 34 -26 98 -31 74 -7 76 -6
82 16 4 13 7 42 7 65 l0 41 -61 7 c-96 10 -106 8 -128 -20z m141 -38 c12 -18
-2 -26 -46 -26 -49 0 -82 24 -55 40 17 11 91 1 101 -14z"/>
<path d="M780 1028 c-66 -34 -93 -79 -88 -149 7 -99 73 -156 170 -147 61 6 96
31 126 89 51 97 -10 207 -123 224 -31 5 -51 1 -85 -17z m130 -45 c34 -20 50
-52 50 -101 0 -44 -20 -76 -60 -97 -82 -42 -170 15 -170 111 0 54 53 104 110
104 23 0 55 -7 70 -17z"/>
<path d="M1423 709 l-11 -51 37 6 c35 5 61 28 61 52 0 20 -30 44 -54 44 -20 0
-25 -7 -33 -51z"/>
<path d="M2075 2110 c-15 -17 -16 -24 -7 -45 10 -22 18 -25 65 -25 125 0 254
-58 347 -156 33 -35 66 -64 73 -64 18 0 47 33 47 53 0 32 -135 153 -212 191
-124 62 -279 84 -313 46z"/>
<path d="M2606 1739 c-12 -18 -12 -26 1 -65 18 -52 43 -70 74 -53 18 9 21 17
16 50 -10 78 -58 114 -91 68z"/>
<path d="M2155 848 c-44 -26 -65 -62 -65 -114 0 -60 36 -97 120 -124 l71 -23
22 22 c21 21 21 22 3 55 -27 50 -19 87 23 101 18 6 39 19 47 30 12 16 11 22
-8 42 -19 21 -30 23 -107 23 -47 0 -95 -6 -106 -12z m188 -27 c9 0 17 -6 17
-12 0 -8 -12 -10 -35 -6 -44 7 -62 -9 -70 -67 -9 -60 -4 -80 23 -84 23 -4 29
-16 12 -27 -6 -4 -22 0 -35 9 -13 9 -36 16 -50 16 -57 0 -102 79 -75 130 21
39 88 52 213 41z"/>
<path d="M2160 780 c-11 -11 -20 -29 -20 -39 0 -27 30 -59 63 -67 26 -6 27 -5
27 34 0 23 4 52 10 66 9 25 8 26 -25 26 -22 0 -43 -8 -55 -20z"/>
<path d="M845 513 c3 -10 9 -31 12 -46 7 -33 38 -34 59 -2 12 18 11 24 -2 43
-20 28 -80 32 -69 5z"/>
</g>
</svg>
